<?xml version="1.0" standalone="no"?>
<!DOCTYPE svg PUBLIC "-//W3C//DTD SVG 20010904//EN"
 "http://www.w3.org/TR/2001/REC-SVG-20010904/DTD/svg10.dtd">
<svg version="1.0" xmlns="http://www.w3.org/2000/svg"
 width="225.000000pt" height="225.000000pt" viewBox="0 0 225.000000 225.000000"
 preserveAspectRatio="xMidYMid meet">
<metadata>
Created by potrace 1.14, written by Peter Selinger 2001-2017
</metadata>
<g transform="translate(0.000000,225.000000) scale(0.100000,-0.100000)"
fill="#000000" stroke="none">
<path d="M212 2168 c-17 -17 -17 -399 0 -416 20 -20 76 -15 88 7 5 11 10 84
10 165 l0 146 148 0 c81 0 152 4 158 8 24 16 33 48 21 73 l-13 24 -200 3
c-147 2 -203 -1 -212 -10z"/>
<path d="M1566 2164 c-23 -22 -20 -60 6 -78 18 -13 53 -16 170 -16 l148 0 0
-153 c0 -165 4 -177 51 -177 55 0 59 14 59 219 0 169 -2 190 -18 204 -27 25
-392 25 -416 1z"/>
<path d="M582 1708 c-13 -13 -18 -271 -6 -302 5 -13 23 -16 90 -16 95 0 91 -3
96 95 l3 50 88 3 c57 2 94 -1 103 -9 19 -16 21 -708 2 -727 -7 -7 -34 -12 -60
-12 l-49 0 3 -87 3 -88 205 0 205 0 0 85 0 85 -35 3 c-19 1 -45 5 -57 7 l-23
5 0 364 c0 323 2 365 16 370 31 12 171 7 182 -7 6 -7 12 -40 14 -72 l3 -60 85
0 85 0 0 160 0 160 -470 3 c-358 2 -474 -1 -483 -10z"/>
<path d="M1628 1309 c-10 -5 -18 -21 -18 -35 0 -43 71 -308 87 -326 24 -27 39
-22 92 27 l48 45 20 -28 c220 -298 67 -723 -294 -817 -152 -40 -340 4 -457
105 -22 20 -48 39 -57 42 -24 9 -59 -19 -59 -47 0 -50 182 -165 310 -196 30
-8 98 -13 150 -12 266 3 494 172 576 427 54 166 28 369 -65 513 -21 33 -44 64
-51 68 -7 4 5 24 34 55 48 51 56 79 31 100 -11 9 -303 90 -325 89 -3 0 -13 -4
-22 -10z"/>
<path d="M212 578 c-17 -17 -17 -399 0 -416 17 -17 399 -17 416 0 17 17 15 64
-4 82 -13 13 -42 16 -165 16 l-149 0 0 149 c0 123 -3 152 -16 165 -18 19 -65
21 -82 4z"/>
<path d="M1092 378 c-21 -21 -13 -45 29 -83 91 -82 236 -123 375 -105 127 16
154 27 154 61 0 30 -18 32 -124 14 -157 -27 -260 -2 -363 86 -49 43 -53 45
-71 27z"/>
</g>
</svg>
